<?xml version="1.0" encoding="utf-8"?>
<svg xmlns="http://www.w3.org/2000/svg" viewBox="0 0 53.9 43.6" width="53.9" height="43.6" aria-hidden="true">
  <defs>
    <linearGradient id="grad1" gradientUnits="userSpaceOnUse" x1="3.4752" y1="21.7037" x2="40.1059" y2="21.7037">
      <stop offset="0" stop-color="#06B6D4" />
      <stop offset="1" stop-color="#67E8F9" />
    </linearGradient>
    <linearGradient id="grad2" gradientUnits="userSpaceOnUse" x1="26.665" y1="32.9741" x2="52.1267" y2="32.9741">
      <stop offset="0" stop-color="#06B6D4" />
      <stop offset="1" stop-color="#67E8F9" />
    </linearGradient>
  </defs>
  <path fill="url(#grad1)" d="M40.1,20.3c-3.1,0-6.1,0-9.2,0c-2.6,0-4.6,0.9-5.9,3.2c-1.3,2.3-1.2,4.6,0.2,6.8c0.9,1.5,1.7,3.1,2.6,4.6
	c0.4,0.7,0.4,1.2,0,1.9c-0.8,1.4-1.6,2.8-2.4,4.1c-0.8,1.4-2,2-3.5,2c-5.3,0-10.6,0-15.9,0c-2.4,0-3.1-1.2-1.9-3.3
	C10.8,27.8,17.7,16,24.5,4.2C25,3.3,25.4,2.4,26,1.6c1-1.4,2.5-1.5,3.4,0c3.6,6,7.1,12.1,10.6,18.2C40,19.9,40,20.1,40.1,20.3z" />
  <path fill="url(#grad2)" d="M35.3,22.8c1.6,0,3,0,4.4,0c1.4,0,2.4,0.6,3.1,1.7c3,5.2,6,10.4,8.9,15.6c1,1.7,0.2,3-1.8,3
	c-4.1,0-8.2,0-12.3,0c-1.4,0-2.4-0.6-3.1-1.8c-2.3-4.1-4.6-8.1-7-12.1c-2-3.5,0.3-6.3,3.3-6.3C32.3,23,34,22.8,35.3,22.8z" />
</svg>
